<?xml version="1.0" encoding="UTF-8" standalone="no" ?>
<!DOCTYPE svg PUBLIC "-//W3C//DTD SVG 1.1//EN" "http://www.w3.org/Graphics/SVG/1.1/DTD/svg11.dtd">
<svg xmlns="http://www.w3.org/2000/svg" xmlns:xlink="http://www.w3.org/1999/xlink" version="1.1" width="1280" height="1024" viewBox="0 0 1280 1024" xml:space="preserve">
<desc>Created with Fabric.js 4.4.0</desc>
<defs>
</defs>
<g transform="matrix(1 0 0 1 640 512)" id="background-logo"  >
<rect style="stroke: none; stroke-width: 0; stroke-dasharray: none; stroke-linecap: butt; stroke-dashoffset: 0; stroke-linejoin: miter; stroke-miterlimit: 4; fill: rgb(255,255,255); fill-opacity: 0; fill-rule: nonzero; opacity: 1;"  paint-order="stroke"  x="-640" y="-512" rx="0" ry="0" width="1280" height="1024" />
</g>
<g transform="matrix(1.9211538461538462 0 0 1.9211538461538462 646.6106865375142 478.63579473342355)" id="text-logo"  >
<g style=""  paint-order="stroke"   >
		<g transform="matrix(1 0 0 1 0 0)" id="text-logo-path-0"  >
<path style="stroke: none; stroke-width: 0; stroke-dasharray: none; stroke-linecap: butt; stroke-dashoffset: 0; stroke-linejoin: miter; stroke-miterlimit: 4; fill: rgb(255,8,0); fill-rule: nonzero; opacity: 1;"  paint-order="stroke"  transform=" translate(-283.215, 26.705)" d="M 24.53 -53.69 C 24.53 -53.32 24.61 -52.99 24.77 -52.66 L 47.78 1.11 C 48.23 2.09 49.01 2.58 50.16 2.58 C 50.49 2.58 50.82 2.5 51.15 2.34 C 52.17 1.89 52.66 1.11 52.66 0 C 52.66 -0.37 52.58 -0.7 52.42 -1.03 L 29.41 -54.76 C 28.96 -55.78 28.18 -56.27 27.03 -56.27 C 26.7 -56.27 26.37 -56.19 26.04 -56.03 C 25.02 -55.58 24.53 -54.8 24.53 -53.69 Z M 1.44 0.08 C 1.44 1.39 2.46 2.58 3.94 2.58 C 5.09 2.58 5.87 2.09 6.32 1.11 L 24.94 -42.41 C 25.1 -42.74 25.18 -43.11 25.18 -43.52 C 25.18 -44.83 24.16 -46.02 22.68 -46.02 C 21.57 -46.02 20.79 -45.53 20.34 -44.5 L 1.68 -1.03 C 1.52 -0.7 1.44 -0.33 1.44 0.08 Z M 18.46 -17.19 C 18.95 -16.69 19.56 -16.45 20.26 -16.45 L 33.67 -16.45 C 35.11 -16.45 36.22 -17.55 36.22 -18.99 C 36.22 -20.43 35.11 -21.49 33.67 -21.49 L 20.26 -21.49 C 19.56 -21.49 18.95 -21.25 18.46 -20.79 C 17.47 -19.81 17.47 -18.17 18.46 -17.19 Z M 64.66 -53.77 L 64.66 0 C 64.66 1.44 65.77 2.5 67.2 2.5 C 68.64 2.5 69.7 1.44 69.7 0 L 69.7 -53.77 C 69.7 -55.21 68.64 -56.27 67.2 -56.27 C 65.77 -56.27 64.66 -55.21 64.66 -53.77 Z M 73.56 -28.46 C 73.56 -27.03 74.67 -25.96 76.1 -25.96 L 89.02 -25.96 C 93.78 -25.96 97.55 -27.23 100.38 -29.78 C 103.17 -32.28 104.57 -36.01 104.57 -40.89 C 104.57 -45.86 103.17 -49.67 100.34 -52.29 C 97.51 -54.88 93.7 -56.19 88.86 -56.19 L 88.86 -56.27 L 75.57 -56.27 C 74.87 -56.27 74.26 -56.03 73.81 -55.58 C 72.82 -54.59 72.82 -52.95 73.81 -51.97 C 74.26 -51.47 74.87 -51.23 75.57 -51.23 L 88.86 -51.23 C 95.95 -51.23 99.52 -47.82 99.52 -40.97 C 99.52 -34.33 96.04 -31.01 89.02 -31.01 L 76.1 -31.01 C 74.67 -31.01 73.56 -29.9 73.56 -28.46 Z M 79.38 -21.74 C 79.38 -21.04 79.63 -20.47 80.12 -19.97 L 103.13 1.85 C 103.66 2.3 104.24 2.5 104.9 2.5 C 105.59 2.5 106.17 2.26 106.66 1.76 C 107.11 1.23 107.36 0.62 107.36 0 C 107.36 -0.66 107.11 -1.23 106.58 -1.76 L 83.57 -23.58 C 83.03 -24.04 82.42 -24.28 81.8 -24.28 C 81.15 -24.28 80.57 -24.04 80.04 -23.5 C 79.59 -22.97 79.38 -22.39 79.38 -21.74 Z M 117.59 -26.62 L 117.59 -25.55 C 117.75 -20.84 118.86 -16.41 120.95 -12.35 C 123.21 -7.92 126.45 -4.39 130.59 -1.76 C 134.73 0.9 139.24 2.26 144.21 2.34 L 145.15 2.34 C 148.35 2.34 151.47 1.76 154.54 0.62 C 157.82 -0.62 160.78 -2.54 163.44 -5.21 C 163.93 -5.7 164.18 -6.32 164.18 -7.05 C 164.18 -8.41 163.03 -9.56 161.68 -9.56 C 160.94 -9.56 160.33 -9.31 159.83 -8.82 C 157.78 -6.77 155.4 -5.21 152.74 -4.14 C 150.07 -3.04 147.36 -2.5 144.7 -2.5 L 144.37 -2.5 C 140.43 -2.58 136.78 -3.69 133.38 -5.87 C 130.06 -8 127.39 -10.91 125.46 -14.6 C 123.74 -17.84 122.8 -21.57 122.63 -25.72 L 122.63 -26.54 C 122.63 -30.19 123.29 -33.63 124.64 -36.87 C 126.57 -41.67 129.48 -45.36 133.38 -47.95 C 136.74 -50.08 140.39 -51.15 144.29 -51.15 C 148.18 -51.15 151.83 -50.08 155.2 -47.95 C 155.65 -47.66 156.1 -47.54 156.55 -47.54 C 157.5 -47.54 158.19 -47.95 158.73 -48.73 C 159.01 -49.18 159.14 -49.63 159.14 -50.08 C 159.14 -51.02 158.77 -51.72 157.99 -52.25 C 153.84 -54.92 149.25 -56.27 144.29 -56.27 C 139.33 -56.27 134.73 -54.92 130.59 -52.25 C 125.75 -49.14 122.18 -44.71 119.92 -38.96 C 118.37 -35.15 117.59 -31.01 117.59 -26.62 Z M 195.66 -53.69 C 195.66 -53.32 195.74 -52.99 195.9 -52.66 L 218.91 1.11 C 219.36 2.09 220.14 2.58 221.29 2.58 C 221.62 2.58 221.95 2.5 222.28 2.34 C 223.3 1.89 223.79 1.11 223.79 0 C 223.79 -0.37 223.71 -0.7 223.55 -1.03 L 200.54 -54.76 C 200.09 -55.78 199.31 -56.27 198.16 -56.27 C 197.83 -56.27 197.5 -56.19 197.18 -56.03 C 196.15 -55.58 195.66 -54.8 195.66 -53.69 Z M 172.57 0.08 C 172.57 1.39 173.59 2.58 175.07 2.58 C 176.22 2.58 177 2.09 177.45 1.11 L 196.07 -42.41 C 196.23 -42.74 196.31 -43.11 196.31 -43.52 C 196.31 -44.83 195.29 -46.02 193.81 -46.02 C 192.7 -46.02 191.93 -45.53 191.47 -44.5 L 172.81 -1.03 C 172.65 -0.7 172.57 -0.33 172.57 0.08 Z M 189.59 -17.19 C 190.08 -16.69 190.69 -16.45 191.39 -16.45 L 204.8 -16.45 C 206.24 -16.45 207.35 -17.55 207.35 -18.99 C 207.35 -20.43 206.24 -21.49 204.8 -21.49 L 191.39 -21.49 C 190.69 -21.49 190.08 -21.25 189.59 -20.79 C 188.6 -19.81 188.6 -18.17 189.59 -17.19 Z M 235.79 -53.69 C 235.79 -53.24 235.91 -52.79 236.2 -52.34 L 272.58 1.44 C 273.11 2.21 273.81 2.58 274.75 2.58 C 275.21 2.58 275.66 2.46 276.11 2.17 C 276.89 1.64 277.3 0.94 277.3 0 C 277.3 -0.45 277.17 -0.9 276.89 -1.35 L 240.51 -55.08 C 239.97 -55.86 239.28 -56.27 238.33 -56.27 C 237.88 -56.27 237.43 -56.15 236.98 -55.86 C 236.2 -55.33 235.79 -54.63 235.79 -53.69 Z M 235.79 0 C 235.79 1.44 236.9 2.5 238.33 2.5 C 239.77 2.5 240.83 1.44 240.83 0 L 240.83 -36.96 C 240.83 -38.39 239.77 -39.5 238.33 -39.5 C 236.9 -39.5 235.79 -38.39 235.79 -36.96 Z M 272.17 -16.82 C 272.17 -15.38 273.24 -14.27 274.67 -14.27 C 276.11 -14.27 277.21 -15.38 277.21 -16.82 L 277.21 -53.77 C 277.21 -55.21 276.11 -56.27 274.67 -56.27 C 273.24 -56.27 272.17 -55.21 272.17 -53.77 Z M 295.48 -53.77 L 295.48 -34.45 C 295.48 -33.02 296.55 -31.91 297.99 -31.91 C 299.42 -31.91 300.53 -33.02 300.53 -34.45 L 300.53 -53.77 C 300.53 -55.21 299.42 -56.27 297.99 -56.27 C 296.55 -56.27 295.48 -55.21 295.48 -53.77 Z M 295.48 -17.64 C 295.48 -15.87 295.61 -14.4 295.81 -13.21 C 296.96 -8 300.41 -3.65 304.8 -1.03 C 306.6 0.08 308.57 0.9 310.7 1.52 C 312.63 2.05 314.68 2.34 316.89 2.34 C 319.15 2.34 321.2 2.05 323.13 1.52 C 325.22 0.9 327.15 0.08 328.99 -1.03 C 333.38 -3.65 336.83 -8 337.98 -13.21 C 338.18 -14.4 338.31 -15.87 338.31 -17.64 L 338.31 -26.13 C 338.31 -27.56 337.24 -28.63 335.8 -28.63 C 334.37 -28.63 333.3 -27.56 333.3 -26.13 L 333.3 -17.55 C 333.3 -16.28 333.18 -15.18 332.93 -14.19 C 332.23 -10.62 329.73 -7.34 326.41 -5.37 C 324.81 -4.43 323.29 -3.81 321.86 -3.45 C 318.45 -2.58 315.34 -2.58 311.93 -3.45 C 310.58 -3.81 309.06 -4.43 307.42 -5.37 C 304.1 -7.34 301.56 -10.62 300.86 -14.19 C 300.65 -15.05 300.53 -16.2 300.53 -17.55 L 300.53 -26.13 C 300.53 -27.56 299.42 -28.63 297.99 -28.63 C 296.55 -28.63 295.48 -27.56 295.48 -26.13 Z M 333.01 -34.37 C 333.01 -32.94 334.12 -31.83 335.56 -31.83 C 336.99 -31.83 338.06 -32.94 338.06 -34.37 L 338.06 -53.69 C 338.06 -55.13 336.99 -56.19 335.56 -56.19 C 334.12 -56.19 333.01 -55.13 333.01 -53.69 Z M 387.71 -10.58 C 387.71 -9.15 388.81 -8 390.33 -8 C 391.27 -8 392.05 -8.45 392.59 -9.39 L 415.02 -52.58 C 415.23 -53.12 415.35 -53.53 415.35 -53.77 C 415.35 -55.21 414.24 -56.36 412.73 -56.36 C 411.78 -56.36 411.04 -55.86 410.47 -54.92 L 388.03 -11.77 C 387.83 -11.24 387.71 -10.83 387.71 -10.58 Z M 354.36 0 C 354.36 1.44 355.47 2.5 356.9 2.5 C 358.34 2.5 359.41 1.44 359.41 0 L 359.41 -53.77 C 359.41 -55.21 358.34 -56.27 356.9 -56.27 C 355.47 -56.27 354.36 -55.21 354.36 -53.77 Z M 361.58 -39.83 C 361.58 -39.42 361.66 -39.05 361.83 -38.72 L 382 1.19 C 382.41 2.13 383.15 2.58 384.26 2.58 C 384.67 2.58 385.04 2.5 385.37 2.34 C 386.31 1.93 386.8 1.19 386.8 0.08 C 386.8 -0.29 386.72 -0.66 386.52 -1.03 L 366.38 -40.89 C 365.97 -41.84 365.23 -42.33 364.12 -42.33 C 363.71 -42.33 363.34 -42.25 363.01 -42.08 C 362.07 -41.67 361.58 -40.93 361.58 -39.83 Z M 410.22 0 C 410.22 1.44 411.29 2.5 412.73 2.5 C 414.16 2.5 415.27 1.44 415.27 0 L 415.27 -37.45 C 415.27 -38.88 414.16 -39.99 412.73 -39.99 C 411.29 -39.99 410.22 -38.88 410.22 -37.45 Z M 431.94 -42.41 C 431.94 -41.06 433.01 -39.91 434.36 -39.91 C 435.55 -39.91 436.7 -40.77 436.9 -41.92 C 436.98 -42.53 437.15 -43.11 437.39 -43.68 C 437.68 -44.3 438.01 -44.87 438.42 -45.36 C 438.87 -45.9 439.32 -46.35 439.85 -46.8 C 440.22 -47.09 440.84 -47.46 441.62 -47.87 C 442.4 -48.23 443.1 -48.52 443.71 -48.64 C 444.45 -48.81 445.19 -48.89 445.97 -48.89 L 446.21 -48.89 C 446.91 -48.89 447.57 -48.81 448.22 -48.64 C 449.04 -48.44 449.74 -48.23 450.27 -48.03 C 450.89 -47.74 451.42 -47.46 451.95 -47.13 C 452.53 -46.72 453.02 -46.27 453.43 -45.77 C 454.01 -45.08 454.42 -44.54 454.62 -44.17 C 455.32 -42.98 455.65 -41.75 455.65 -40.48 C 455.65 -39.21 455.07 -37.16 454.13 -35.85 C 454.01 -35.68 453.64 -35.19 452.94 -34.37 C 452.49 -33.92 452 -33.51 451.5 -33.18 C 450.85 -32.69 450.11 -32.28 449.33 -31.91 C 448.88 -31.75 448.1 -31.54 446.91 -31.34 C 446.09 -31.17 445.23 -31.09 444.37 -31.09 C 442.93 -31.09 441.86 -29.98 441.86 -28.55 C 441.86 -27.11 442.93 -26.04 444.37 -26.04 C 445.43 -26.04 446.54 -26.13 447.65 -26.29 C 448.84 -26.46 449.99 -26.74 451.09 -27.15 C 452.16 -27.52 453.27 -28.1 454.37 -28.92 C 455.36 -29.7 456.1 -30.31 456.55 -30.76 C 457.16 -31.38 457.78 -32.12 458.31 -32.94 C 459.83 -35.19 460.57 -37.65 460.57 -40.4 C 460.57 -42.74 460.03 -44.83 459.01 -46.63 C 458.56 -47.5 457.98 -48.32 457.25 -49.14 C 455.97 -50.57 454.05 -51.88 452.28 -52.66 C 451.13 -53.16 450.15 -53.48 449.33 -53.61 C 448.3 -53.77 447.28 -53.85 446.29 -53.85 L 446.05 -53.85 C 445.1 -53.85 444 -53.73 442.77 -53.44 C 441.74 -53.24 440.72 -52.87 439.65 -52.34 C 438.75 -51.88 437.85 -51.31 436.9 -50.57 C 436.04 -49.92 435.3 -49.18 434.65 -48.32 C 433.91 -47.37 433.33 -46.47 432.96 -45.61 C 432.27 -44.5 431.94 -43.44 431.94 -42.41 Z M 428.9 -5.62 C 428.9 -5.04 429.07 -4.55 429.44 -4.1 C 430.42 -2.83 431.65 -1.64 433.13 -0.57 C 436.41 1.76 440.35 2.95 444.98 2.95 C 448.8 2.95 452.24 2.09 455.28 0.41 C 457.94 -1.15 459.99 -3.2 461.43 -5.7 C 462.82 -8.2 463.52 -10.95 463.52 -13.95 C 463.52 -16.94 462.78 -19.69 461.26 -22.19 L 461.18 -22.27 C 460.16 -23.95 458.8 -25.35 457.12 -26.46 C 456.67 -26.74 456.22 -26.87 455.81 -26.87 C 454.87 -26.87 454.13 -26.5 453.6 -25.72 C 453.31 -25.27 453.18 -24.81 453.18 -24.36 C 453.18 -23.42 453.6 -22.72 454.37 -22.19 C 455.4 -21.57 456.22 -20.75 456.79 -19.73 C 457.82 -18.05 458.31 -16.16 458.31 -14.03 C 458.31 -11.94 457.82 -10.01 456.88 -8.24 C 455.85 -6.44 454.46 -5.04 452.61 -4.02 C 450.44 -2.75 447.85 -2.09 444.86 -2.09 C 441.37 -2.09 438.38 -2.95 435.96 -4.72 C 434.97 -5.33 434.15 -6.15 433.46 -7.14 C 432.92 -7.83 432.27 -8.16 431.45 -8.16 C 430.87 -8.16 430.38 -8 429.93 -7.63 C 429.23 -7.1 428.9 -6.44 428.9 -5.62 Z M 474.53 -17.06 C 474.53 -13.17 475.27 -9.8 476.79 -6.97 C 478.47 -3.77 480.93 -1.35 484.09 0.33 C 486.84 1.76 489.75 2.5 492.91 2.5 C 493.85 2.5 494.51 2.46 494.96 2.42 C 499.3 1.97 502.95 0.29 505.95 -2.71 C 508.62 -5.37 510.13 -8.49 510.58 -12.1 C 510.62 -12.47 510.67 -13.08 510.67 -13.86 C 510.67 -16.78 509.93 -19.52 508.45 -22.11 C 506.85 -24.86 504.68 -27.03 502.01 -28.55 C 498.85 -30.39 495.33 -31.34 491.43 -31.34 C 490.08 -31.34 488.89 -31.21 487.9 -31.01 C 486.71 -30.8 485.85 -29.65 485.85 -28.46 C 485.85 -26.95 487.16 -26 488.31 -26 C 488.48 -26 488.64 -26 488.8 -26.04 C 489.62 -26.21 490.53 -26.29 491.51 -26.29 L 492.74 -26.29 C 494.96 -26.13 496.97 -25.51 498.81 -24.45 C 500.74 -23.3 502.34 -21.74 503.53 -19.73 C 504.51 -18.05 505.01 -16.12 505.01 -14.03 C 505.01 -13.45 504.96 -13.04 504.92 -12.76 C 504.64 -10.29 503.61 -8.12 501.85 -6.23 C 499.67 -4.06 497.05 -2.83 493.93 -2.5 C 493.64 -2.46 493.19 -2.42 492.5 -2.42 C 490.16 -2.42 488.07 -2.95 486.14 -4.02 C 483.88 -5.29 482.2 -7.01 481.01 -9.23 C 479.95 -11.4 479.41 -13.99 479.41 -16.98 C 479.41 -18.74 479.62 -20.55 480.07 -22.35 C 480.68 -24.86 481.59 -27.19 482.82 -29.45 C 484.05 -31.71 485.69 -34.17 487.74 -36.87 C 491.92 -42.37 497.21 -46.72 503.61 -49.92 C 504.55 -50.33 505.01 -51.06 505.01 -52.17 C 505.01 -52.54 504.92 -52.91 504.76 -53.24 C 504.35 -54.18 503.61 -54.67 502.5 -54.67 C 502.09 -54.67 501.72 -54.59 501.4 -54.43 C 494.38 -50.86 488.52 -46.1 483.84 -40.07 C 481.67 -37.2 479.86 -34.49 478.47 -31.95 C 477.03 -29.37 475.97 -26.62 475.27 -23.71 C 474.78 -21.62 474.53 -19.4 474.53 -17.06 Z M 521.72 -26.13 C 521.72 -18.87 523.44 -11.81 526.84 -6.73 C 528.81 -3.77 531.23 -1.44 534.14 0.25 C 537.14 2.01 540.3 2.87 543.66 2.87 L 544.15 2.87 C 547.64 2.79 550.92 1.76 553.91 -0.16 C 556.58 -1.89 558.84 -4.27 560.68 -7.3 C 563.55 -12.1 564.99 -17.96 564.99 -24.94 C 564.99 -32.53 563.43 -38.8 560.27 -43.85 C 558.34 -46.92 555.97 -49.38 553.05 -51.15 C 549.94 -52.99 546.61 -53.94 543.13 -53.94 L 542.64 -53.94 C 538.98 -53.81 535.66 -52.75 532.63 -50.74 C 529.88 -48.93 527.58 -46.43 525.78 -43.27 C 523.07 -38.55 521.72 -32.81 521.72 -26.13 Z M 526.6 -24.86 L 526.6 -26.46 C 526.6 -32.2 527.71 -37 529.88 -40.81 C 531.36 -43.31 533.12 -45.2 535.17 -46.55 C 537.43 -48.07 539.89 -48.85 542.64 -48.97 L 542.96 -48.97 C 545.55 -48.97 548.01 -48.32 550.3 -46.96 C 552.52 -45.65 554.41 -43.76 555.92 -41.34 C 558.55 -37.16 559.86 -31.79 559.86 -25.18 C 559.86 -19.07 558.67 -14.07 556.33 -10.17 C 554.9 -7.83 553.14 -6.03 551.13 -4.72 C 548.87 -3.28 546.49 -2.5 543.99 -2.42 L 543.66 -2.42 C 541.12 -2.42 538.78 -3.04 536.61 -4.27 C 534.39 -5.54 532.55 -7.3 531.07 -9.56 C 528.57 -13.29 527.09 -18.38 526.6 -24.86 Z" stroke-linecap="round" />
</g>
</g>
</g>
</svg>