<?xml version="1.0" encoding="UTF-8" standalone="no" ?>
<!DOCTYPE svg PUBLIC "-//W3C//DTD SVG 1.1//EN" "http://www.w3.org/Graphics/SVG/1.1/DTD/svg11.dtd">
<svg xmlns="http://www.w3.org/2000/svg" xmlns:xlink="http://www.w3.org/1999/xlink" version="1.1" width="1280" height="1024" viewBox="0 0 1280 1024" xml:space="preserve">
<desc>Created with Fabric.js 4.4.0</desc>
<defs>
</defs>
<g transform="matrix(1 0 0 1 640 512)" id="background-logo"  >
<rect style="stroke: none; stroke-width: 0; stroke-dasharray: none; stroke-linecap: butt; stroke-dashoffset: 0; stroke-linejoin: miter; stroke-miterlimit: 4; fill: rgb(0,0,0); fill-rule: nonzero; opacity: 1;"  paint-order="stroke"  x="-640" y="-512" rx="0" ry="0" width="1280" height="1024" />
</g>
<g transform="matrix(1.9211538461538462 0 0 1.9211538461538462 613.6706116245912 494.3915416212045)" id="text-logo"  >
<g style=""  paint-order="stroke"   >
		<g transform="matrix(1 0 0 1 0 0)" id="text-logo-path-0"  >
<filter id="SVGID_919200" y="-80.70143884892087%" height="261.40287769784175%" x="-26.65598422285221%" width="153.31196844570442%" >
	<feGaussianBlur in="SourceAlpha" stdDeviation="13.5"></feGaussianBlur>
	<feOffset dx="0" dy="0" result="oBlur" ></feOffset>
	<feFlood flood-color="rgb(0,0,0)" flood-opacity="1"/>
	<feComposite in2="oBlur" operator="in" />
	<feMerge>
		<feMergeNode></feMergeNode>
		<feMergeNode in="SourceGraphic"></feMergeNode>
	</feMerge>
</filter>
<path style="stroke: none; stroke-width: 0; stroke-dasharray: none; stroke-linecap: butt; stroke-dashoffset: 0; stroke-linejoin: miter; stroke-miterlimit: 4; fill: rgb(255,255,255); fill-rule: nonzero; opacity: 1;filter: url(#SVGID_919200);"  paint-order="stroke"  transform=" translate(-203.90500000000003, 20.03)" d="M 18.4 -40.27 C 18.4 -39.99 18.46 -39.74 18.58 -39.5 L 35.84 0.83 C 36.18 1.57 36.76 1.94 37.62 1.94 C 37.87 1.94 38.11 1.88 38.36 1.75 C 39.13 1.42 39.5 0.83 39.5 0 C 39.5 -0.28 39.44 -0.52 39.31 -0.77 L 22.06 -41.07 C 21.72 -41.84 21.13 -42.21 20.27 -42.21 C 20.03 -42.21 19.78 -42.14 19.53 -42.02 C 18.76 -41.68 18.4 -41.1 18.4 -40.27 Z M 1.08 0.06 C 1.08 1.05 1.85 1.94 2.95 1.94 C 3.81 1.94 4.4 1.57 4.74 0.83 L 18.7 -31.81 C 18.83 -32.05 18.89 -32.33 18.89 -32.64 C 18.89 -33.62 18.12 -34.51 17.01 -34.51 C 16.18 -34.51 15.6 -34.15 15.26 -33.38 L 1.26 -0.77 C 1.14 -0.52 1.08 -0.25 1.08 0.06 Z M 13.84 -12.89 C 14.21 -12.52 14.67 -12.34 15.2 -12.34 L 25.26 -12.34 C 26.33 -12.34 27.16 -13.17 27.16 -14.24 C 27.16 -15.32 26.33 -16.12 25.26 -16.12 L 15.2 -16.12 C 14.67 -16.12 14.21 -15.93 13.84 -15.6 C 13.1 -14.86 13.1 -13.63 13.84 -12.89 Z M 46.6 -40.33 L 46.6 0 C 46.6 1.08 47.43 1.88 48.51 1.88 C 49.59 1.88 50.39 1.08 50.39 0 L 50.39 -40.33 C 50.39 -41.41 49.59 -42.21 48.51 -42.21 C 47.43 -42.21 46.6 -41.41 46.6 -40.33 Z M 53.28 -21.35 C 53.28 -20.27 54.11 -19.47 55.19 -19.47 L 64.88 -19.47 C 68.44 -19.47 71.27 -20.43 73.4 -22.33 C 75.49 -24.21 76.54 -27.01 76.54 -30.67 C 76.54 -34.39 75.49 -37.25 73.37 -39.22 C 71.24 -41.16 68.38 -42.14 64.75 -42.14 L 64.75 -42.21 L 54.79 -42.21 C 54.26 -42.21 53.8 -42.02 53.46 -41.68 C 52.73 -40.94 52.73 -39.71 53.46 -38.98 C 53.8 -38.61 54.26 -38.42 54.79 -38.42 L 64.75 -38.42 C 70.08 -38.42 72.75 -35.87 72.75 -30.73 C 72.75 -25.75 70.14 -23.26 64.88 -23.26 L 55.19 -23.26 C 54.11 -23.26 53.28 -22.43 53.28 -21.35 Z M 57.65 -16.3 C 57.65 -15.78 57.83 -15.35 58.2 -14.98 L 75.46 1.38 C 75.86 1.72 76.29 1.88 76.78 1.88 C 77.3 1.88 77.73 1.69 78.1 1.32 C 78.44 0.92 78.63 0.46 78.63 0 C 78.63 -0.49 78.44 -0.92 78.04 -1.32 L 60.79 -17.69 C 60.39 -18.03 59.92 -18.21 59.46 -18.21 C 58.97 -18.21 58.54 -18.03 58.14 -17.63 C 57.8 -17.23 57.65 -16.8 57.65 -16.3 Z M 84.41 -19.96 L 84.41 -19.16 C 84.53 -15.63 85.36 -12.3 86.93 -9.26 C 88.62 -5.94 91.05 -3.29 94.16 -1.32 C 97.27 0.68 100.65 1.69 104.37 1.75 L 105.08 1.75 C 107.48 1.75 109.82 1.32 112.13 0.46 C 114.59 -0.46 116.8 -1.91 118.8 -3.91 C 119.17 -4.28 119.36 -4.74 119.36 -5.29 C 119.36 -6.31 118.49 -7.17 117.48 -7.17 C 116.93 -7.17 116.46 -6.98 116.09 -6.61 C 114.56 -5.08 112.77 -3.91 110.77 -3.11 C 108.77 -2.28 106.74 -1.88 104.74 -1.88 L 104.5 -1.88 C 101.54 -1.94 98.81 -2.77 96.25 -4.4 C 93.76 -6 91.76 -8.18 90.32 -10.95 C 89.02 -13.38 88.32 -16.18 88.19 -19.29 L 88.19 -19.9 C 88.19 -22.64 88.69 -25.22 89.7 -27.65 C 91.15 -31.25 93.33 -34.02 96.25 -35.96 C 98.78 -37.56 101.51 -38.36 104.44 -38.36 C 107.36 -38.36 110.1 -37.56 112.62 -35.96 C 112.96 -35.75 113.3 -35.65 113.63 -35.65 C 114.34 -35.65 114.86 -35.96 115.26 -36.54 C 115.48 -36.88 115.57 -37.22 115.57 -37.56 C 115.57 -38.27 115.29 -38.79 114.71 -39.19 C 111.6 -41.19 108.16 -42.21 104.44 -42.21 C 100.71 -42.21 97.27 -41.19 94.16 -39.19 C 90.53 -36.85 87.86 -33.53 86.16 -29.22 C 84.99 -26.36 84.41 -23.26 84.41 -19.96 Z M 141.07 -40.27 C 141.07 -39.99 141.13 -39.74 141.26 -39.5 L 158.52 0.83 C 158.85 1.57 159.44 1.94 160.3 1.94 C 160.55 1.94 160.79 1.88 161.04 1.75 C 161.81 1.42 162.18 0.83 162.18 0 C 162.18 -0.28 162.11 -0.52 161.99 -0.77 L 144.73 -41.07 C 144.4 -41.84 143.81 -42.21 142.95 -42.21 C 142.7 -42.21 142.46 -42.14 142.21 -42.02 C 141.44 -41.68 141.07 -41.1 141.07 -40.27 Z M 123.75 0.06 C 123.75 1.05 124.52 1.94 125.63 1.94 C 126.49 1.94 127.08 1.57 127.42 0.83 L 141.38 -31.81 C 141.5 -32.05 141.57 -32.33 141.57 -32.64 C 141.57 -33.62 140.8 -34.51 139.69 -34.51 C 138.86 -34.51 138.27 -34.15 137.94 -33.38 L 123.94 -0.77 C 123.82 -0.52 123.75 -0.25 123.75 0.06 Z M 136.52 -12.89 C 136.89 -12.52 137.35 -12.34 137.87 -12.34 L 147.93 -12.34 C 149.01 -12.34 149.84 -13.17 149.84 -14.24 C 149.84 -15.32 149.01 -16.12 147.93 -16.12 L 137.87 -16.12 C 137.35 -16.12 136.89 -15.93 136.52 -15.6 C 135.78 -14.86 135.78 -13.63 136.52 -12.89 Z M 169.28 -40.27 C 169.28 -39.93 169.37 -39.59 169.59 -39.25 L 196.88 1.08 C 197.27 1.66 197.8 1.94 198.51 1.94 C 198.84 1.94 199.18 1.85 199.52 1.63 C 200.1 1.23 200.41 0.71 200.41 0 C 200.41 -0.34 200.32 -0.68 200.1 -1.02 L 172.82 -41.31 C 172.42 -41.9 171.9 -42.21 171.19 -42.21 C 170.85 -42.21 170.51 -42.11 170.17 -41.9 C 169.59 -41.5 169.28 -40.97 169.28 -40.27 Z M 169.28 0 C 169.28 1.08 170.11 1.88 171.19 1.88 C 172.27 1.88 173.07 1.08 173.07 0 L 173.07 -27.72 C 173.07 -28.79 172.27 -29.62 171.19 -29.62 C 170.11 -29.62 169.28 -28.79 169.28 -27.72 Z M 196.57 -12.61 C 196.57 -11.54 197.37 -10.71 198.44 -10.71 C 199.52 -10.71 200.35 -11.54 200.35 -12.61 L 200.35 -40.33 C 200.35 -41.41 199.52 -42.21 198.44 -42.21 C 197.37 -42.21 196.57 -41.41 196.57 -40.33 Z M 212.16 -40.33 L 212.16 -25.84 C 212.16 -24.76 212.96 -23.93 214.04 -23.93 C 215.12 -23.93 215.95 -24.76 215.95 -25.84 L 215.95 -40.33 C 215.95 -41.41 215.12 -42.21 214.04 -42.21 C 212.96 -42.21 212.16 -41.41 212.16 -40.33 Z M 212.16 -13.23 C 212.16 -11.9 212.26 -10.8 212.41 -9.91 C 213.27 -6 215.85 -2.74 219.15 -0.77 C 220.5 0.06 221.98 0.68 223.58 1.14 C 225.02 1.54 226.56 1.75 228.22 1.75 C 229.91 1.75 231.45 1.54 232.9 1.14 C 234.47 0.68 235.91 0.06 237.3 -0.77 C 240.59 -2.74 243.17 -6 244.03 -9.91 C 244.19 -10.8 244.28 -11.9 244.28 -13.23 L 244.28 -19.6 C 244.28 -20.67 243.48 -21.47 242.4 -21.47 C 241.33 -21.47 240.53 -20.67 240.53 -19.6 L 240.53 -13.17 C 240.53 -12.21 240.43 -11.38 240.25 -10.64 C 239.73 -7.97 237.85 -5.51 235.36 -4.03 C 234.16 -3.32 233.02 -2.86 231.94 -2.58 C 229.39 -1.94 227.05 -1.94 224.5 -2.58 C 223.48 -2.86 222.35 -3.32 221.12 -4.03 C 218.62 -5.51 216.72 -7.97 216.19 -10.64 C 216.04 -11.29 215.95 -12.15 215.95 -13.17 L 215.95 -19.6 C 215.95 -20.67 215.12 -21.47 214.04 -21.47 C 212.96 -21.47 212.16 -20.67 212.16 -19.6 Z M 240.31 -25.78 C 240.31 -24.7 241.14 -23.87 242.22 -23.87 C 243.29 -23.87 244.09 -24.7 244.09 -25.78 L 244.09 -40.27 C 244.09 -41.34 243.29 -42.14 242.22 -42.14 C 241.14 -42.14 240.31 -41.34 240.31 -40.27 Z M 279.44 -7.94 C 279.44 -6.86 280.27 -6 281.41 -6 C 282.12 -6 282.7 -6.34 283.1 -7.04 L 299.93 -39.44 C 300.08 -39.84 300.17 -40.14 300.17 -40.33 C 300.17 -41.41 299.34 -42.27 298.2 -42.27 C 297.5 -42.27 296.94 -41.9 296.51 -41.19 L 279.69 -8.83 C 279.53 -8.43 279.44 -8.12 279.44 -7.94 Z M 254.43 0 C 254.43 1.08 255.26 1.88 256.34 1.88 C 257.41 1.88 258.21 1.08 258.21 0 L 258.21 -40.33 C 258.21 -41.41 257.41 -42.21 256.34 -42.21 C 255.26 -42.21 254.43 -41.41 254.43 -40.33 Z M 259.84 -29.87 C 259.84 -29.56 259.91 -29.29 260.03 -29.04 L 275.16 0.89 C 275.47 1.6 276.02 1.94 276.86 1.94 C 277.16 1.94 277.44 1.88 277.69 1.75 C 278.39 1.45 278.76 0.89 278.76 0.06 C 278.76 -0.22 278.7 -0.49 278.55 -0.77 L 263.44 -30.67 C 263.14 -31.38 262.58 -31.75 261.75 -31.75 C 261.44 -31.75 261.17 -31.68 260.92 -31.56 C 260.21 -31.25 259.84 -30.7 259.84 -29.87 Z M 296.33 0 C 296.33 1.08 297.13 1.88 298.2 1.88 C 299.28 1.88 300.11 1.08 300.11 0 L 300.11 -28.09 C 300.11 -29.16 299.28 -29.99 298.2 -29.99 C 297.13 -29.99 296.33 -29.16 296.33 -28.09 Z M 310.72 -31.81 C 310.72 -30.79 311.52 -29.93 312.54 -29.93 C 313.43 -29.93 314.29 -30.58 314.45 -31.44 C 314.51 -31.9 314.63 -32.33 314.82 -32.76 C 315.03 -33.22 315.28 -33.65 315.58 -34.02 C 315.92 -34.42 316.26 -34.76 316.66 -35.1 C 316.94 -35.31 317.4 -35.59 317.98 -35.9 C 318.57 -36.18 319.09 -36.39 319.55 -36.48 C 320.11 -36.61 320.66 -36.67 321.24 -36.67 L 321.43 -36.67 C 321.95 -36.67 322.44 -36.61 322.94 -36.48 C 323.55 -36.33 324.07 -36.18 324.47 -36.02 C 324.94 -35.81 325.34 -35.59 325.74 -35.35 C 326.17 -35.04 326.54 -34.7 326.84 -34.33 C 327.27 -33.81 327.58 -33.41 327.74 -33.13 C 328.26 -32.24 328.5 -31.32 328.5 -30.36 C 328.5 -29.41 328.07 -27.87 327.37 -26.89 C 327.27 -26.76 327 -26.39 326.47 -25.78 C 326.14 -25.44 325.77 -25.13 325.4 -24.89 C 324.91 -24.52 324.35 -24.21 323.77 -23.93 C 323.43 -23.81 322.84 -23.66 321.95 -23.5 C 321.34 -23.38 320.69 -23.32 320.04 -23.32 C 318.97 -23.32 318.17 -22.49 318.17 -21.41 C 318.17 -20.33 318.97 -19.53 320.04 -19.53 C 320.84 -19.53 321.68 -19.6 322.51 -19.72 C 323.4 -19.84 324.26 -20.06 325.09 -20.36 C 325.89 -20.64 326.72 -21.07 327.55 -21.69 C 328.29 -22.27 328.84 -22.73 329.18 -23.07 C 329.64 -23.53 330.1 -24.09 330.5 -24.7 C 331.64 -26.39 332.2 -28.24 332.2 -30.3 C 332.2 -32.05 331.8 -33.62 331.03 -34.98 C 330.69 -35.62 330.26 -36.24 329.7 -36.85 C 328.75 -37.93 327.3 -38.91 325.98 -39.5 C 325.12 -39.87 324.38 -40.11 323.77 -40.21 C 323 -40.33 322.23 -40.39 321.49 -40.39 L 321.31 -40.39 C 320.6 -40.39 319.77 -40.3 318.85 -40.08 C 318.08 -39.93 317.31 -39.65 316.51 -39.25 C 315.83 -38.91 315.15 -38.48 314.45 -37.93 C 313.8 -37.44 313.25 -36.88 312.75 -36.24 C 312.2 -35.53 311.77 -34.85 311.49 -34.21 C 310.97 -33.38 310.72 -32.58 310.72 -31.81 Z M 308.45 -4.21 C 308.45 -3.78 308.57 -3.41 308.85 -3.08 C 309.59 -2.12 310.51 -1.23 311.62 -0.43 C 314.08 1.32 317.03 2.21 320.51 2.21 C 323.37 2.21 325.95 1.57 328.23 0.31 C 330.23 -0.86 331.77 -2.4 332.84 -4.28 C 333.89 -6.15 334.41 -8.21 334.41 -10.46 C 334.41 -12.7 333.86 -14.77 332.72 -16.64 L 332.66 -16.7 C 331.89 -17.96 330.87 -19.01 329.61 -19.84 C 329.27 -20.06 328.94 -20.15 328.63 -20.15 C 327.92 -20.15 327.37 -19.87 326.97 -19.29 C 326.75 -18.95 326.66 -18.61 326.66 -18.27 C 326.66 -17.56 326.97 -17.04 327.55 -16.64 C 328.32 -16.18 328.94 -15.57 329.37 -14.8 C 330.13 -13.54 330.5 -12.12 330.5 -10.52 C 330.5 -8.95 330.13 -7.51 329.43 -6.18 C 328.66 -4.83 327.61 -3.78 326.23 -3.01 C 324.6 -2.06 322.66 -1.57 320.41 -1.57 C 317.8 -1.57 315.55 -2.21 313.74 -3.54 C 313 -4 312.39 -4.61 311.86 -5.35 C 311.46 -5.88 310.97 -6.12 310.35 -6.12 C 309.92 -6.12 309.56 -6 309.22 -5.72 C 308.69 -5.32 308.45 -4.83 308.45 -4.21 Z M 340.78 -12.8 C 340.78 -9.87 341.33 -7.35 342.47 -5.23 C 343.73 -2.83 345.58 -1.02 347.95 0.25 C 350.01 1.32 352.19 1.88 354.56 1.88 C 355.27 1.88 355.76 1.85 356.1 1.81 C 359.36 1.48 362.1 0.22 364.34 -2.03 C 366.34 -4.03 367.48 -6.37 367.82 -9.07 C 367.85 -9.35 367.88 -9.81 367.88 -10.4 C 367.88 -12.58 367.33 -14.64 366.22 -16.58 C 365.02 -18.64 363.39 -20.27 361.39 -21.41 C 359.02 -22.79 356.37 -23.5 353.45 -23.5 C 352.44 -23.5 351.54 -23.41 350.81 -23.26 C 349.91 -23.1 349.27 -22.24 349.27 -21.35 C 349.27 -20.21 350.25 -19.5 351.11 -19.5 C 351.24 -19.5 351.36 -19.5 351.48 -19.53 C 352.1 -19.66 352.78 -19.72 353.51 -19.72 L 354.44 -19.72 C 356.1 -19.6 357.6 -19.13 358.99 -18.33 C 360.44 -17.47 361.63 -16.3 362.53 -14.8 C 363.27 -13.54 363.63 -12.09 363.63 -10.52 C 363.63 -10.09 363.6 -9.78 363.57 -9.57 C 363.36 -7.72 362.59 -6.09 361.27 -4.68 C 359.64 -3.05 357.67 -2.12 355.33 -1.88 C 355.11 -1.85 354.77 -1.81 354.25 -1.81 C 352.5 -1.81 350.93 -2.21 349.48 -3.01 C 347.79 -3.97 346.53 -5.26 345.64 -6.92 C 344.84 -8.55 344.44 -10.49 344.44 -12.74 C 344.44 -14.06 344.59 -15.41 344.93 -16.77 C 345.39 -18.64 346.07 -20.4 346.99 -22.09 C 347.92 -23.78 349.15 -25.62 350.68 -27.65 C 353.82 -31.78 357.79 -35.04 362.59 -37.44 C 363.3 -37.74 363.63 -38.3 363.63 -39.13 C 363.63 -39.41 363.57 -39.68 363.45 -39.93 C 363.14 -40.64 362.59 -41.01 361.76 -41.01 C 361.45 -41.01 361.17 -40.94 360.93 -40.82 C 355.67 -38.14 351.27 -34.58 347.76 -30.05 C 346.13 -27.9 344.78 -25.87 343.73 -23.96 C 342.65 -22.03 341.85 -19.96 341.33 -17.78 C 340.96 -16.21 340.78 -14.55 340.78 -12.8 Z M 374.28 -19.6 C 374.28 -14.15 375.57 -8.86 378.12 -5.04 C 379.6 -2.83 381.41 -1.08 383.6 0.18 C 385.84 1.51 388.21 2.15 390.74 2.15 L 391.1 2.15 C 393.72 2.09 396.18 1.32 398.43 -0.12 C 400.43 -1.42 402.12 -3.2 403.5 -5.48 C 405.65 -9.07 406.73 -13.47 406.73 -18.7 C 406.73 -24.39 405.56 -29.1 403.19 -32.88 C 401.75 -35.19 399.96 -37.04 397.78 -38.36 C 395.44 -39.74 392.95 -40.45 390.34 -40.45 L 389.97 -40.45 C 387.23 -40.36 384.74 -39.56 382.46 -38.05 C 380.4 -36.7 378.68 -34.82 377.32 -32.45 C 375.29 -28.92 374.28 -24.61 374.28 -19.6 Z M 377.94 -18.64 L 377.94 -19.84 C 377.94 -24.15 378.77 -27.75 380.4 -30.61 C 381.51 -32.48 382.83 -33.9 384.37 -34.91 C 386.06 -36.05 387.91 -36.64 389.97 -36.73 L 390.21 -36.73 C 392.15 -36.73 394 -36.24 395.72 -35.22 C 397.38 -34.24 398.79 -32.82 399.93 -31.01 C 401.9 -27.87 402.89 -23.84 402.89 -18.89 C 402.89 -14.3 401.99 -10.55 400.24 -7.63 C 399.16 -5.88 397.84 -4.52 396.33 -3.54 C 394.64 -2.46 392.86 -1.88 390.98 -1.81 L 390.74 -1.81 C 388.83 -1.81 387.07 -2.28 385.44 -3.2 C 383.78 -4.15 382.4 -5.48 381.29 -7.17 C 379.42 -9.97 378.31 -13.78 377.94 -18.64 Z" stroke-linecap="round" />
</g>
</g>
</g>
</svg>